HIERARCHY
ROOT hip
{
	OFFSET 0.000000 0.000000 0.000000 
	CHANNELS 6 Xposition Yposition Zposition Xrotation Zrotation Yrotation
	JOINT abdomen
	{
		OFFSET 0.000000 3.402643 0.000000 
		CHANNELS 3 Xrotation Zrotation Yrotation
		JOINT chest
		{
			OFFSET 0.000000 8.438565 -0.680529 
			CHANNELS 3 Xrotation Zrotation Yrotation
			JOINT neck
			{
				OFFSET 0.000000 9.885400 -0.272212 
				CHANNELS 3 Xrotation Zrotation Yrotation
				JOINT head
				{
					OFFSET 0.000000 3.130431 0.000000 
					CHANNELS 3 Xrotation Zrotation Yrotation
					End Site
					{
						OFFSET 0.000000 3.039250 0.000000 
					}
				}
			}
			JOINT lCollar
			{
				OFFSET 3.238290 6.669187 -0.816635 
				CHANNELS 3 Yrotation Zrotation Xrotation
				JOINT lShldr
				{
					OFFSET 2.515050 0.000000 0.000000 
					CHANNELS 3 Zrotation Yrotation Xrotation
					JOINT lForeArm
					{
						OFFSET 11.517700 0.000000 0.000000 
						CHANNELS 3 Yrotation Zrotation Xrotation
						JOINT lHand
						{
							OFFSET 9.026700 0.000000 0.000000 
							CHANNELS 3 Zrotation Yrotation Xrotation
							End Site
							{
								OFFSET 4.028470 0.000000 0.000000 
							}
						}
					}
				}
			}
			JOINT rCollar
			{
				OFFSET -3.238290 6.669187 -0.816635 
				CHANNELS 3 Yrotation Zrotation Xrotation
				JOINT rShldr
				{
					OFFSET -2.515050 0.000000 0.000000 
					CHANNELS 3 Zrotation Yrotation Xrotation
					JOINT rForeArm
					{
						OFFSET -11.517700 0.000000 0.000000 
						CHANNELS 3 Yrotation Zrotation Xrotation
						JOINT rHand
						{
							OFFSET -9.026700 0.000000 0.000000 
							CHANNELS 3 Zrotation Yrotation Xrotation
							End Site
							{
								OFFSET -4.028470 0.000000 0.000000 
							}
						}
					}
				}
			}
		}
	}
	JOINT lThigh
	{
		OFFSET 4.983750 -1.633274 1.361059 
		CHANNELS 3 Xrotation Zrotation Yrotation
		JOINT lShin
		{
			OFFSET -2.041588 -20.007561 0.000000 
			CHANNELS 3 Xrotation Zrotation Yrotation
			JOINT lFoot
			{
				OFFSET 0.000000 -19.190928 -1.224953 
				CHANNELS 3 Xrotation Yrotation Zrotation
				End Site
				{
					OFFSET 0.000000 -2.449906 4.627600 
				}
			}
		}
	}
	JOINT rThigh
	{
		OFFSET -4.983750 -1.633274 1.361059 
		CHANNELS 3 Xrotation Zrotation Yrotation
		JOINT rShin
		{
			OFFSET 2.041588 -20.007561 0.000000 
			CHANNELS 3 Xrotation Zrotation Yrotation
			JOINT rFoot
			{
				OFFSET 0.000000 -19.190928 -1.224953 
				CHANNELS 3 Xrotation Yrotation Zrotation
				End Site
				{
					OFFSET 0.000000 -2.449906 4.627600 
				}
			}
		}
	}
}
MOTION
Frames: 11
Frame Time: 0.062023
0.000000 43.879402 0.000000 3.134900 0.536306 1.006030 -0.474600 2.823499 0.236698 -0.203400 1.210071 0.101442 27.053246 -23.855289 0.515919 21.037800 5.093300 2.071220 2.000000 -2.000000 0.020256 -84.404297 -3.015180 -148.832001 85.166496 -0.226369 0.136277 0.071411 -0.071893 -163.542999 -2.000000 2.000000 0.020256 67.693497 18.457600 -159.311996 -109.238998 0.173017 0.110107 -0.055553 0.020256 -143.796997 -4.446526 -5.263153 0.964751 13.358134 2.487443 1.199969 -5.869150 4.680491 0.788780 -11.652132 -3.356547 4.523892 23.287121 -3.366058 -1.664988 -14.327304 -11.656374 -3.808741 
-0.038921 43.871338 0.074642 3.086010 0.390059 1.173440 -0.414610 3.274817 0.159839 -0.177690 1.403493 0.068503 26.268227 -22.396667 0.531826 20.123501 5.363490 1.903390 2.000000 -2.000000 0.000000 -84.971802 -3.993520 -149.699005 90.967400 -0.212376 0.156271 0.069736 -0.068451 -162.175995 -2.000000 2.000000 0.000000 72.694199 12.641200 -165.350998 -103.829002 0.184505 0.113517 -0.055022 0.014120 -141.970993 -4.471877 -5.097604 0.932131 13.679495 2.521538 1.198089 -6.094075 4.649116 0.774230 -11.496737 -3.194648 4.338508 23.258333 -3.357207 -1.653819 -14.439254 -11.596241 -3.844070 
-0.085445 43.877224 0.188833 3.252120 0.584994 1.078260 -0.415660 3.753967 0.041747 -0.178140 1.608843 0.017891 25.739050 -21.426836 0.566319 19.667000 5.527140 1.834020 2.000000 -2.000000 0.000000 -84.973396 -6.290420 -150.651001 97.158798 -0.196595 0.155149 0.067792 -0.064168 -160.496002 -2.000000 2.000000 0.000000 77.128098 6.765530 -170.912003 -94.775803 0.204279 0.116754 -0.054704 0.009893 -140.457001 -4.208878 -5.258659 1.004800 13.057734 2.489799 1.156724 -5.892308 4.649010 0.786320 -11.656451 -3.365681 4.377173 23.467215 -3.350006 -1.670365 -14.427265 -11.485157 -3.805464 
-0.134711 43.857399 0.285310 3.262080 0.848233 0.849264 0.317520 3.844995 -0.103757 0.136080 1.647855 -0.044467 24.032627 -19.273165 0.886977 18.360901 5.857080 1.705000 2.000000 -2.000000 0.000000 -83.970299 -10.365400 -151.942001 103.233002 -0.181317 0.152399 0.066804 -0.061854 -159.597000 -2.000000 2.000000 0.000000 -98.886803 177.126999 3.239290 -83.037598 0.231422 0.135717 -0.054405 0.001476 -137.449005 -3.973366 -5.481853 1.205218 12.722165 2.475219 1.150953 -5.777451 4.627692 0.803656 -11.834488 -3.574745 4.417284 23.932837 -3.345248 -1.703620 -14.482183 -11.267863 -3.749150 
-0.118167 43.836414 0.354523 3.027750 0.936192 1.358260 0.591640 4.059104 -0.597974 0.253560 1.739616 -0.256274 22.367367 -17.287132 1.060996 17.248100 6.106020 1.564100 2.000000 -2.000000 0.000000 -82.733704 -15.182200 -153.065002 108.417999 -0.168567 0.148783 0.065660 -0.059042 -158.514008 -2.000000 2.000000 0.000000 -96.884903 -179.662994 -2.178540 -71.123596 0.259081 0.129371 -0.054404 -0.001313 -136.453003 -3.757379 -5.584798 0.903442 12.953124 2.515362 1.151054 -5.931123 4.453089 0.733739 -11.500586 -3.715667 4.026970 24.165825 -3.372651 -1.706848 -14.819905 -11.329291 -3.812179 
-0.098538 43.817730 0.427245 2.959550 1.121550 1.425350 0.592900 3.986038 -0.898888 0.254100 1.708302 -0.385238 21.269667 -15.461747 1.245234 16.391100 6.395710 1.530740 2.000000 -2.000000 0.000000 -80.707298 -19.804199 -154.399994 112.558998 -0.158652 0.145077 0.064312 -0.055518 -157.166000 -2.000000 2.000000 0.000000 -95.840698 -177.106995 -7.204180 -59.697800 0.283831 0.118044 -0.054400 -0.000602 -136.707001 -3.491483 -5.808593 0.513396 12.726248 2.499428 1.124099 -5.880365 4.722185 0.775556 -11.506153 -3.907463 3.868620 24.489136 -3.393798 -1.727473 -14.877541 -11.289015 -3.797433 
-0.057933 43.812737 0.475081 2.910750 1.160610 1.211540 0.737240 3.865407 -0.999258 0.315960 1.656603 -0.428254 20.231853 -13.896145 1.477571 15.669000 6.605660 1.557660 2.000000 -2.000000 0.000000 -78.681702 -24.191999 -155.764008 115.606003 -0.151541 0.141898 0.052975 -0.051055 -155.475998 -2.000000 2.000000 0.000000 84.820900 -4.538670 166.610001 -49.766102 0.303156 0.104376 -0.054439 0.006156 -135.632996 -3.299843 -5.921329 0.524897 12.603427 2.515014 1.117640 -5.871036 4.947707 0.799727 -11.472861 -3.985702 4.009626 24.587107 -3.395211 -1.717144 -14.978539 -11.171490 -3.767120 
0.009213 43.799950 0.528646 2.803410 1.258260 0.598918 0.805910 3.967173 -1.205073 0.345390 1.700217 -0.516460 19.440201 -12.990628 2.037384 15.210500 6.751410 1.775300 2.000000 -2.000000 0.000000 -77.211601 -26.783199 -157.281998 117.413002 -0.147408 0.139836 0.051488 -0.046392 -153.727997 -2.000000 2.000000 0.000000 84.719902 -5.834600 161.080002 -42.529701 0.315599 0.092421 -0.054425 0.006812 -135.867004 -3.045789 -6.116545 0.662295 12.532340 2.520128 1.109657 -5.983223 5.357775 0.868216 -11.502334 -4.097725 4.286825 24.693598 -3.413169 -1.729554 -14.790744 -10.895596 -3.651467 
0.112294 43.778069 0.593705 2.813270 1.336280 -0.168506 0.943319 3.887121 -1.366896 0.404280 1.665909 -0.585812 18.684391 -12.293885 2.650522 14.760200 6.839350 2.029870 2.000000 -2.000000 0.000000 -76.218201 -27.899200 -158.520004 118.370003 -0.145245 0.138691 0.050045 -0.041315 -151.843994 -2.000000 2.000000 0.000000 84.354897 -6.937900 156.595993 -38.223000 0.322254 0.084594 -0.054402 -0.001122 -136.520996 -2.785640 -6.278158 1.131758 12.167504 2.449988 1.099360 -6.004617 5.507505 0.956506 -11.676373 -4.220983 4.715882 24.843699 -3.398519 -1.734760 -14.613963 -10.643377 -3.528763 
0.201546 43.759121 0.618925 2.657140 1.482780 -0.809870 0.637071 3.927133 -1.746129 0.273030 1.683057 -0.748341 18.315500 -11.915672 3.251068 14.467800 6.952120 2.287730 2.000000 -2.000000 0.000000 -75.536003 -28.106800 -159.651993 118.760002 -0.144368 0.138214 0.048894 -0.036727 -150.154007 -2.000000 2.000000 0.000000 84.020500 -8.035550 153.888000 -36.826599 0.324284 0.081951 -0.054424 0.002871 -137.947006 -2.563744 -6.546672 1.473212 12.130919 2.483626 1.103292 -6.068501 5.782003 0.996393 -11.708696 -4.393940 5.152323 25.107351 -3.423496 -1.757011 -14.558261 -10.429173 -3.418043 
0.268729 43.738407 0.618511 2.510720 1.580510 -1.141400 1.158570 3.513090 -1.775996 0.496530 1.505610 -0.761141 17.799999 -11.673465 3.357093 14.317700 6.849990 2.338820 2.000000 -2.000000 0.000000 -75.089203 -29.358400 -160.337997 118.194000 -0.145641 0.138904 0.048046 -0.032909 -148.757996 -2.000000 2.000000 0.000000 84.106598 -8.373760 152.197998 -36.885101 0.324200 0.082063 -0.054484 0.005222 -138.787003 -2.358206 -6.732360 1.741569 12.052659 2.474457 1.094031 -6.050348 5.833912 0.996883 -11.692262 -4.527806 5.384199 25.265413 -3.423327 -1.765802 -14.567890 -10.313935 -3.379201 
